<svg width="30" height="30" viewBox="0 0 30 30" fill="none" xmlns="http://www.w3.org/2000/svg">
<path d="M15.0015 28.3206L20.9446 26.8198C24.3369 24.0029 26.4976 19.7542 26.4976 15.0003C26.4976 7.66764 21.3582 1.5354 14.4851 0.00897217C6.43928 0.28032 0 6.88829 0 15.0002C0 19.167 1.69922 22.9365 4.44211 25.6547L15.0015 28.3206Z" fill="#CBE2FF"/>
<path d="M26.1863 15C26.1863 19.9169 23.8203 24.2807 20.1649 27.0163L25.5574 25.6546C28.3004 22.9364 30 19.1668 30 15C30 6.71572 23.2842 0 15 0C14.354 0 13.7176 0.0408984 13.0931 0.120117C20.4771 1.05691 26.1863 7.36172 26.1863 15Z" fill="#BED8FB"/>
<path d="M18.7279 5.68079C18.7279 4.91468 18.1069 4.29364 17.3408 4.29364H12.5606C10.7974 4.29364 9.3681 5.72298 9.3681 7.48612V11.0306H20.6303V7.53639C20.6303 6.77028 20.0093 6.14924 19.2432 6.14924H19.1964C18.9377 6.14924 18.7279 5.93954 18.7279 5.68079Z" fill="#365E7D"/>
<path d="M19.2431 6.14924H19.1964C18.9376 6.14924 18.7279 5.93948 18.7279 5.68073C18.7279 4.91461 18.1068 4.29358 17.3407 4.29358H16.8166V11.0306H20.6302V7.53633C20.6303 6.77034 20.0092 6.14924 19.2431 6.14924Z" fill="#2B4D66"/>
<path d="M24.9051 21.8177C24.5383 21.4555 24.0847 21.1753 23.5697 21.0123L19.4745 19.7158L15.001 19.5586L10.5256 19.7158L6.43045 21.0123C5.04506 21.451 4.10352 22.7366 4.10352 24.1898V25.3086C6.72787 28.0817 10.3995 29.8536 14.4853 29.9914C19.0631 28.9746 22.8718 25.9147 24.9051 21.8177Z" fill="#4A80AA"/>
<path d="M25.8967 25.3085V24.1897C25.8967 23.1622 25.4256 22.2189 24.6601 21.5991C22.4856 26.0303 18.1901 29.232 13.0969 29.8794C13.7116 29.9573 14.3378 29.9988 14.9734 29.9999C15.5841 29.999 16.1867 29.9636 16.7795 29.8955C20.3555 29.4729 23.5462 27.7924 25.8967 25.3085Z" fill="#407093"/>
<path d="M15.3396 29.7755C16.2472 27.9737 18.6105 22.8575 17.9366 19.6617L15.001 18.5192L12.0626 19.6617C11.3679 22.9562 13.9007 28.2913 14.7392 29.9326C14.9409 29.8842 15.1411 29.8318 15.3396 29.7755Z" fill="#E4F6FF"/>
<path d="M16.8866 28.347L15.6963 23.6644H14.3037L13.1164 28.3342L14.5846 29.9688C14.9574 29.8834 15.3249 29.7845 15.6868 29.6725L16.8866 28.347Z" fill="#E28086"/>
<path d="M14.6076 29.9944C14.7292 29.9976 14.851 29.9998 14.9733 30C15.1148 29.9998 15.2558 29.9973 15.3964 29.9934L16.1527 29.1579C15.5574 29.3667 14.9451 29.5391 14.3182 29.6723L14.6076 29.9944Z" fill="#DD636E"/>
<path d="M17.5064 19.2295V16.5889H12.4919V19.2295C12.4919 20.6141 14.9992 22.1267 14.9992 22.1267C14.9992 22.1267 17.5064 20.6141 17.5064 19.2295Z" fill="#FFDDCE"/>
<path d="M20.6303 10.5655H19.6718C19.1387 10.5655 18.7066 10.1334 18.7066 9.60028V9.07206C18.7066 8.37766 18.0272 7.88671 17.3679 8.10462C15.8302 8.61286 14.1699 8.61298 12.6322 8.10497L12.6304 8.10438C11.9711 7.88659 11.2918 8.37755 11.2918 9.07188V9.60034C11.2918 10.1334 10.8597 10.5656 10.3266 10.5656H9.3681V12.144C9.3681 12.5473 9.69506 12.8743 10.0984 12.8743C10.2257 12.8743 10.3292 12.9739 10.3372 13.101C10.4912 15.5424 12.519 17.4752 14.9993 17.4752C17.4795 17.4752 19.5073 15.5424 19.6613 13.101C19.6693 12.974 19.7728 12.8743 19.9001 12.8743C20.3034 12.8743 20.6304 12.5473 20.6304 12.144V10.5655H20.6303Z" fill="#FFDDCE"/>
<path d="M19.6718 10.5655C19.1387 10.5655 18.7065 10.1334 18.7065 9.60028V9.07206C18.7065 8.37766 18.0271 7.8867 17.3678 8.10461C17.1857 8.16479 17.0018 8.21729 16.8167 8.26323V13.4764C16.791 15.1726 15.8616 16.6488 14.489 17.4466C14.6567 17.4649 14.8267 17.4751 14.9991 17.4751C17.4794 17.4751 19.5072 15.5423 19.6611 13.1008C19.6692 12.9739 19.7727 12.8741 19.9 12.8741C20.3033 12.8741 20.6303 12.5472 20.6303 12.1438V10.5654H19.6718V10.5655Z" fill="#FFCBBE"/>
<path d="M12.4919 18.5191L10.5256 20.1168L12.5876 22.6664C12.8384 22.9106 13.2332 22.9256 13.502 22.7012L15.0526 21.4059L12.4919 18.5191Z" fill="#F4FBFF"/>
<path d="M17.5072 18.5191L15.0526 21.4059L16.5101 22.652C16.7771 22.8803 17.1738 22.8688 17.4271 22.6255L19.4744 20.1168L17.5072 18.5191Z" fill="#F4FBFF"/>
<path d="M12.4919 18.5192L9.60579 19.9371C9.38606 20.045 9.29782 20.3123 9.41003 20.5299L9.97546 21.6262C10.122 21.9102 10.0679 22.2564 9.84175 22.4822C9.72532 22.5984 9.59923 22.7243 9.48995 22.8334C9.29436 23.0286 9.22411 23.3171 9.31024 23.5797C9.99292 25.6607 13.2785 28.843 14.5219 29.9944C14.6055 29.9966 14.6893 29.9981 14.7733 29.9991C13.8716 28.2452 10.6763 21.5818 12.4919 18.5192Z" fill="#365E7D"/>
<path d="M20.1575 22.4822C19.9312 22.2563 19.8772 21.9102 20.0238 21.6261L20.5892 20.5298C20.7014 20.3123 20.6131 20.0449 20.3934 19.937L17.5073 18.5192C19.3224 21.581 16.1294 28.2416 15.2267 29.9977C15.3115 29.9962 15.3962 29.9941 15.4807 29.9913C16.7267 28.8373 20.0069 25.6589 20.689 23.5797C20.7751 23.3171 20.7048 23.0287 20.5093 22.8334C20.4 22.7243 20.2739 22.5983 20.1575 22.4822Z" fill="#365E7D"/>
<path d="M15.0528 21.4059L13.5258 22.6811L14.3038 23.6644H15.6964L16.4745 22.6231L15.0528 21.4059Z" fill="#DD636E"/>
</svg>
