<svg width="38" height="38" viewBox="0 0 38 38" fill="none" xmlns="http://www.w3.org/2000/svg">
<path d="M37.3117 31.1813C37.0596 30.7906 36.7589 30.4452 36.4177 30.1546L32.9498 27.1299C32.9228 27.0893 32.8915 27.0507 32.8556 27.0148C32.7954 26.9546 32.7271 26.9077 32.6545 26.8725L30.5573 25.0434L20.8502 16.5756C21.2476 16.1602 21.4664 15.617 21.4664 15.0394C21.4664 14.4443 21.2347 13.8851 20.8137 13.4641C20.6301 13.2807 20.4214 13.1365 20.1984 13.0309L21.0964 12.1328C21.3474 12.1995 21.6053 12.2337 21.8635 12.2337C22.6235 12.2336 23.3837 11.9443 23.9623 11.3657C24.5232 10.8048 24.8321 10.0593 24.8321 9.26641C24.8321 8.47353 24.5232 7.728 23.9624 7.16713L17.665 0.869954C17.1042 0.309082 16.3586 0.000183105 15.5655 0.000183105C14.7727 0.000183105 14.0273 0.309082 13.4665 0.869954C12.6914 1.6451 12.4362 2.74569 12.6994 3.73592L3.73934 12.6959C3.49175 12.6301 3.23414 12.5954 2.97096 12.5954C2.1777 12.5954 1.43247 12.904 0.872045 13.4644C-0.285473 14.6219 -0.285473 16.5054 0.872045 17.6629L7.1693 23.9603C7.74813 24.539 8.50835 24.8284 9.26858 24.8284C10.0289 24.8284 10.7891 24.539 11.3679 23.9603C12.1431 23.1851 12.3982 22.0845 12.1351 21.0943L13.0313 20.198C13.1389 20.4229 13.2851 20.6304 13.4666 20.8119C13.8871 21.2324 14.4462 21.4641 15.0412 21.4641C15.6182 21.4641 16.1612 21.2456 16.5772 20.8487L26.9163 32.7278C26.9448 32.7723 26.9781 32.8147 27.017 32.8536C27.0303 32.8668 27.0444 32.8789 27.0584 32.891L30.1393 36.4308C30.2159 36.5212 30.2978 36.6101 30.3827 36.695C31.2289 37.5409 32.3466 38 33.52 38C33.7268 38 33.9356 37.9857 34.1447 37.9568C35.5421 37.7634 36.7499 36.9274 37.4581 35.6628C38.2339 34.2769 38.1762 32.5174 37.3117 31.1813ZM14.5162 1.91956C14.7967 1.63909 15.1694 1.48456 15.5655 1.48456C15.9622 1.48456 16.3351 1.63909 16.6155 1.91956L22.9128 8.21681C23.1933 8.49728 23.3478 8.87008 23.3478 9.26649C23.3478 9.66289 23.1933 10.0357 22.9128 10.3162C22.3342 10.8948 21.3927 10.8948 20.8141 10.3162L14.5166 4.01862C14.5164 4.01847 14.5164 4.01839 14.5162 4.01825C13.9375 3.43964 13.9375 2.49817 14.5162 1.91956ZM10.3183 22.9107C9.73957 23.4894 8.79766 23.4895 8.2189 22.9107L1.92165 16.6134C1.34282 16.0346 1.34282 15.0929 1.92165 14.514C2.2016 14.234 2.57433 14.0797 2.97096 14.0797C3.36751 14.0797 3.74001 14.2339 4.01989 14.5137L10.3183 20.8121C10.897 21.3906 10.897 22.3321 10.3183 22.9107ZM13.4431 17.6871L11.3679 19.7625L5.06994 13.4645L13.4665 5.06778L19.7644 11.3657L17.6854 13.4448C17.6786 13.4512 17.672 13.4574 17.6649 13.4645L13.4687 17.6607C13.46 17.6693 13.4516 17.6782 13.4431 17.6871ZM16.0932 19.2354C16.0917 19.2369 16.0903 19.2383 16.0888 19.2398L15.5661 19.7625C15.4259 19.9026 15.2396 19.9798 15.0411 19.9798C14.8427 19.9798 14.6563 19.9026 14.5162 19.7624C14.3758 19.6221 14.2985 19.4355 14.2985 19.237C14.2985 19.0427 14.3727 18.8599 14.5072 18.722L18.723 14.5063C19.0119 14.2253 19.479 14.2288 19.7645 14.514C19.9048 14.6543 19.9821 14.8408 19.9821 15.0394C19.9821 15.2378 19.905 15.4238 19.7645 15.564L19.2449 16.0836C19.2413 16.0871 19.2377 16.0907 19.2342 16.0943L16.0932 19.2354ZM17.6301 19.7976L19.7992 17.6285L28.9832 25.6393L25.6319 28.9907L17.6301 19.7976ZM26.6087 30.113L30.1043 26.6173L31.2256 27.5953L27.5855 31.2354L26.6087 30.113ZM36.1631 34.9377C35.684 35.7929 34.8742 36.3574 33.9412 36.4865C33.0104 36.6153 32.0958 36.3087 31.4321 35.6454C31.375 35.5884 31.3204 35.5289 31.2695 35.4687C31.2671 35.4658 31.2648 35.463 31.2623 35.4603L28.5622 32.3578L32.3467 28.5732L35.4454 31.276C35.4477 31.2781 35.45 31.2801 35.4525 31.2822C35.6844 31.4794 35.8902 31.7162 36.0649 31.9868C36.6261 32.8541 36.6654 34.0401 36.1631 34.9377Z" fill="black"/>
</svg>
