<svg fill="none" xmlns="http://www.w3.org/2000/svg">
	<symbol id="icon-heart" viewBox="0 0 25 22">
		<path fill="currentColor" d="M23.0167 2.15299C21.7226 0.764638 19.9469 0 18.0162 0C16.5731 0 15.2515 0.451274 14.0881 1.34118C13.501 1.79038 12.969 2.33995 12.5 2.98139C12.0312 2.34014 11.499 1.79038 10.9118 1.34118C9.74846 0.451274 8.42686 0 6.98376 0C5.05314 0 3.27721 0.764638 1.98307 2.15299C0.704384 3.52511 0 5.39963 0 7.4315C0 9.52279 0.787926 11.4371 2.47955 13.4562C3.99284 15.2622 6.16779 17.0956 8.68645 19.2186C9.54647 19.9436 10.5213 20.7654 11.5335 21.6408C11.801 21.8725 12.1441 22 12.5 22C12.8557 22 13.199 21.8725 13.4661 21.6412C14.4783 20.7656 15.4537 19.9434 16.3141 19.218C18.8324 17.0954 21.0073 15.2622 22.5206 13.456C24.2123 11.4371 25 9.52279 25 7.43131C25 5.39963 24.2956 3.52511 23.0167 2.15299Z"/>
	</symbol>
</svg>
